name rise30.3154peak39.0474fall46.5389.mot
datacolumns 19
datarows 26
range 23.51324900000000 23.55490900000000
endheader
time	ground_force1_vx	ground_force1_vy	ground_force1_vz	ground_force1_px	ground_force1_py	ground_force1_pz	ground_force2_vx	ground_force2_vy	ground_force2_vz	ground_force2_px	ground_force2_py	ground_force2_pz	ground_torque1_x	ground_torque1_y	ground_torque1_z	ground_torque2_x	ground_torque2_y	ground_torque2_z	
23.51324900000000	-40.43343400000000	791.69455900000003	47.09086500000000	0.18030200000000	0.00000000000000	0.07688700000000	0.00000000000000	0.00000000000000	0.00000000000000	0.00000000000000	0.00000000000000	0.00000000000000	0.00000000000000	22.63891400000000	0.00000000000000	0.00000000000000	0.00000000000000	0.00000000000000	
23.51491200000000	-40.79590300000000	791.14684399999999	47.22621400000000	0.17932000000000	0.00000000000000	0.07685800000000	0.00000000000000	0.00000000000000	0.00000000000000	0.00000000000000	0.00000000000000	0.00000000000000	0.00000000000000	22.63161000000000	0.00000000000000	0.00000000000000	0.00000000000000	0.00000000000000	
23.51658500000000	-41.16666000000000	790.51401499999997	47.35442400000000	0.17833700000000	0.00000000000000	0.07682800000000	-0.56853200000000	3.15162200000000	0.65480600000000	0.00000000000000	0.00000000000000	0.00000000000000	0.00000000000000	22.62133400000000	0.00000000000000	0.00000000000000	0.29613700000000	0.00000000000000	
23.51824900000000	-41.54653100000000	789.79302900000005	47.47482600000000	0.17735300000000	0.00000000000000	0.07679700000000	-0.88666700000000	6.57168600000000	1.15602500000000	0.00000000000000	0.00000000000000	0.00000000000000	0.00000000000000	22.60802700000000	0.00000000000000	0.00000000000000	0.53177600000000	0.00000000000000	
23.51991400000000	-41.93630800000000	788.98075500000004	47.58673800000000	0.17636900000000	0.00000000000000	0.07676400000000	-1.24053900000000	10.77183800000000	1.74536300000000	0.00000000000000	0.00000000000000	0.00000000000000	0.00000000000000	22.59163200000000	0.00000000000000	0.00000000000000	0.81053000000000	0.00000000000000	
23.52157700000000	-42.33673300000000	788.07397500000002	47.68945900000000	0.17538400000000	0.00000000000000	0.07673100000000	-1.61730200000000	15.72623000000000	2.41148000000000	0.00000000000000	0.00000000000000	0.00000000000000	0.00000000000000	22.57209200000000	0.00000000000000	0.00000000000000	1.12758100000000	0.00000000000000	
23.52324500000000	-42.74850400000000	787.06939299999999	47.78227700000000	0.17439900000000	0.00000000000000	0.07669600000000	-2.00129700000000	21.37663600000000	3.13837500000000	0.00000000000000	0.00000000000000	0.00000000000000	0.00000000000000	22.54935000000000	0.00000000000000	0.00000000000000	1.47593100000000	0.00000000000000	
23.52491500000000	-43.17225800000000	785.96363299999996	47.86446600000000	0.17341500000000	0.00000000000000	0.07665900000000	-2.37501200000000	27.63706100000000	3.90643100000000	0.33677400000000	0.00000000000000	-0.09158600000000	0.00000000000000	22.52334600000000	0.00000000000000	0.00000000000000	2.94493500000000	0.00000000000000	
23.52657900000000	-43.60857700000000	784.75324899999998	47.93529300000000	0.17243100000000	0.00000000000000	0.07662200000000	-2.72027800000000	34.40123500000000	4.69386300000000	0.34613800000000	0.00000000000000	-0.09237500000000	0.00000000000000	22.49402300000000	0.00000000000000	0.00000000000000	3.60406600000000	0.00000000000000	
23.52825000000000	-44.05797400000000	783.43472999999994	47.99401400000000	0.17144900000000	0.00000000000000	0.07658200000000	-3.01954700000000	41.55200000000000	5.47837600000000	0.35421600000000	0.00000000000000	-0.09305700000000	0.00000000000000	22.46132200000000	0.00000000000000	0.00000000000000	4.27669200000000	0.00000000000000	
23.52991700000000	-44.52089400000000	782.00450499999999	48.03988300000000	0.17046800000000	0.00000000000000	0.07654100000000	-3.25707600000000	48.97121600000000	6.23881200000000	0.36127400000000	0.00000000000000	-0.09365400000000	0.00000000000000	22.42518600000000	0.00000000000000	0.00000000000000	4.94574000000000	0.00000000000000	
23.53158000000000	-44.99770800000000	780.45895099999996	48.07214600000000	0.16948900000000	0.00000000000000	0.07649800000000	-3.41987400000000	56.54887000000000	6.95655900000000	0.36751000000000	0.00000000000000	-0.09418300000000	0.00000000000000	22.38555600000000	0.00000000000000	0.00000000000000	5.59579400000000	0.00000000000000	
23.53325100000000	-45.48870700000000	778.79440199999999	48.09005200000000	0.16851300000000	0.00000000000000	0.07645300000000	-3.49832700000000	64.19039300000000	7.61659100000000	0.37307500000000	0.00000000000000	-0.09465600000000	0.00000000000000	22.34237500000000	0.00000000000000	0.00000000000000	6.21400300000000	0.00000000000000	
23.53491100000000	-45.99409700000000	777.00715500000001	48.09284900000000	0.16754000000000	0.00000000000000	0.07640600000000	-3.48645800000000	71.82164600000000	8.20807100000000	0.37808500000000	0.00000000000000	-0.09508300000000	0.00000000000000	22.29558300000000	0.00000000000000	0.00000000000000	6.79066100000000	0.00000000000000	
23.53658400000000	-46.51400100000000	775.09347800000000	48.07979100000000	0.16657100000000	0.00000000000000	0.07635600000000	-3.38185800000000	79.39143700000000	8.72451500000000	0.38263100000000	0.00000000000000	-0.09547200000000	0.00000000000000	22.24512400000000	0.00000000000000	0.00000000000000	7.31944000000000	0.00000000000000	
23.53824300000000	-47.04844900000000	773.04962499999999	48.05013900000000	0.16560700000000	0.00000000000000	0.07630500000000	-3.18533500000000	86.87172800000000	9.16357300000000	0.38678600000000	0.00000000000000	-0.09582900000000	0.00000000000000	22.19093900000000	0.00000000000000	0.00000000000000	7.79731000000000	0.00000000000000	
23.53991600000000	-47.59737500000000	770.87183700000003	48.00316300000000	0.16464900000000	0.00000000000000	0.07625100000000	-2.90036700000000	94.25590000000000	9.52651400000000	0.39060900000000	0.00000000000000	-0.09615800000000	0.00000000000000	22.13297100000000	0.00000000000000	0.00000000000000	8.22420100000000	0.00000000000000	
23.54158000000000	-48.16062000000000	768.55636000000004	47.93814700000000	0.16369600000000	0.00000000000000	0.07619400000000	-2.53242500000000	101.55555800000000	9.81749700000000	0.39414800000000	0.00000000000000	-0.09646500000000	0.00000000000000	22.07116300000000	0.00000000000000	0.00000000000000	8.60247800000000	0.00000000000000	
23.54324800000000	-48.73792300000000	766.09945200000004	47.85439100000000	0.16275100000000	0.00000000000000	0.07613500000000	-2.08825700000000	108.79639000000000	10.04273500000000	0.39744200000000	0.00000000000000	-0.09675100000000	0.00000000000000	22.00545500000000	0.00000000000000	0.00000000000000	8.93631700000000	0.00000000000000	
23.54491200000000	-49.32892000000000	763.49739099999999	47.75121500000000	0.16181400000000	0.00000000000000	0.07607200000000	-1.57519600000000	116.01360400000000	10.20964400000000	0.40052200000000	0.00000000000000	-0.09702000000000	0.00000000000000	21.93579000000000	0.00000000000000	0.00000000000000	9.23102500000000	0.00000000000000	
23.54657700000000	-49.93314500000000	760.74649099999999	47.62796000000000	0.16088500000000	0.00000000000000	0.07600700000000	-1.00053300000000	123.24736600000000	10.32603300000000	0.40341800000000	0.00000000000000	-0.09727300000000	0.00000000000000	21.86210900000000	0.00000000000000	0.00000000000000	9.49240300000000	0.00000000000000	
23.54824900000000	-50.55002400000000	757.84311300000002	47.48399500000000	0.15996600000000	0.00000000000000	0.07593900000000	-0.37101800000000	130.53862500000000	10.39941000000000	0.40615100000000	0.00000000000000	-0.09751400000000	0.00000000000000	21.78435500000000	0.00000000000000	0.00000000000000	9.72617100000000	0.00000000000000	
23.54990900000000	-51.17887800000000	754.78367100000003	47.31871600000000	0.15905800000000	0.00000000000000	0.07586800000000	0.30751700000000	137.92557199999999	10.43643000000000	0.40874000000000	0.00000000000000	-0.09774300000000	0.00000000000000	21.70246700000000	0.00000000000000	0.00000000000000	9.93749700000000	0.00000000000000	
23.55157700000000	-51.81892100000000	751.56465100000003	47.13155500000000	0.15816100000000	0.00000000000000	0.07579300000000	1.03039400000000	145.44090600000001	10.44250500000000	0.41120200000000	0.00000000000000	-0.09796100000000	0.00000000000000	21.61638600000000	0.00000000000000	0.00000000000000	10.13065600000000	0.00000000000000	
23.55324900000000	-52.46925600000000	748.18261800000005	46.92197700000000	0.15727700000000	0.00000000000000	0.07571500000000	1.79419000000000	153.10996599999999	10.42157900000000	0.41355100000000	0.00000000000000	-0.09817100000000	0.00000000000000	21.52605100000000	0.00000000000000	0.00000000000000	10.30881400000000	0.00000000000000	
23.55490900000000	-53.12888100000000	744.63423299999999	46.68948700000000	0.15640600000000	0.00000000000000	0.07563400000000	2.59671800000000	160.94972400000000	10.37604900000000	0.41579900000000	0.00000000000000	-0.09837300000000	0.00000000000000	21.43140100000000	0.00000000000000	0.00000000000000	10.47393200000000	0.00000000000000	
